<mxfile host="Electron" agent="Mozilla/5.0 (Windows NT 10.0; Win64; x64) AppleWebKit/537.36 (KHTML, like Gecko) draw.io/28.0.6 Chrome/138.0.7204.100 Electron/37.2.3 Safari/537.36" version="28.0.6">
  <diagram name="Page-1" id="gSxyeUECwV7p8e2SJqh6">
    <mxGraphModel dx="1059" dy="811" grid="1" gridSize="10" guides="1" tooltips="1" connect="1" arrows="1" fold="1" page="1" pageScale="1" pageWidth="1100" pageHeight="850" math="0" shadow="0">
      <root>
        <mxCell id="0" />
        <mxCell id="1" parent="0" />
        <mxCell id="PXgQgO9ZJXW4oYvPHx63-1" value="" style="rounded=0;whiteSpace=wrap;html=1;fillColor=none;dashed=1;strokeColor=#B3B3B3;" vertex="1" parent="1">
          <mxGeometry x="30" y="140" width="180" height="560" as="geometry" />
        </mxCell>
        <mxCell id="PXgQgO9ZJXW4oYvPHx63-2" value="&lt;font style=&quot;font-size: 23px;&quot;&gt;Sources&lt;/font&gt;" style="rounded=0;whiteSpace=wrap;html=1;fillColor=default;strokeColor=none;" vertex="1" parent="1">
          <mxGeometry x="60" y="120" width="120" height="40" as="geometry" />
        </mxCell>
        <mxCell id="PXgQgO9ZJXW4oYvPHx63-3" value="" style="rounded=0;whiteSpace=wrap;html=1;fillColor=none;dashed=1;strokeColor=#B3B3B3;" vertex="1" parent="1">
          <mxGeometry x="240" y="140" width="600" height="560" as="geometry" />
        </mxCell>
        <mxCell id="PXgQgO9ZJXW4oYvPHx63-4" value="&lt;font style=&quot;font-size: 23px;&quot;&gt;Data Warehouse&lt;/font&gt;" style="rounded=0;whiteSpace=wrap;html=1;fillColor=default;strokeColor=none;" vertex="1" parent="1">
          <mxGeometry x="380" y="120" width="300" height="40" as="geometry" />
        </mxCell>
        <mxCell id="PXgQgO9ZJXW4oYvPHx63-6" value="" style="rounded=0;whiteSpace=wrap;html=1;fillColor=none;dashed=1;strokeColor=#B3B3B3;" vertex="1" parent="1">
          <mxGeometry x="860" y="140" width="180" height="560" as="geometry" />
        </mxCell>
        <mxCell id="PXgQgO9ZJXW4oYvPHx63-7" value="&lt;font style=&quot;font-size: 23px;&quot;&gt;Consume&lt;/font&gt;" style="rounded=0;whiteSpace=wrap;html=1;fillColor=default;strokeColor=none;" vertex="1" parent="1">
          <mxGeometry x="890" y="120" width="120" height="40" as="geometry" />
        </mxCell>
        <mxCell id="PXgQgO9ZJXW4oYvPHx63-8" value="Bronze Layer" style="rounded=0;whiteSpace=wrap;html=1;fillColor=#ffe6cc;strokeColor=#d79b00;fontSize=20;" vertex="1" parent="1">
          <mxGeometry x="270" y="185" width="160" height="30" as="geometry" />
        </mxCell>
        <mxCell id="PXgQgO9ZJXW4oYvPHx63-9" value="" style="rounded=0;whiteSpace=wrap;html=1;fillColor=none;strokeColor=#d79b00;fontSize=20;" vertex="1" parent="1">
          <mxGeometry x="270" y="225" width="160" height="430" as="geometry" />
        </mxCell>
        <mxCell id="PXgQgO9ZJXW4oYvPHx63-13" value="Silver Layer" style="rounded=0;whiteSpace=wrap;html=1;fillColor=#f5f5f5;strokeColor=#666666;fontSize=20;fontColor=#333333;" vertex="1" parent="1">
          <mxGeometry x="470" y="185" width="160" height="30" as="geometry" />
        </mxCell>
        <mxCell id="PXgQgO9ZJXW4oYvPHx63-14" value="" style="rounded=0;whiteSpace=wrap;html=1;fillColor=none;strokeColor=#666666;fontSize=20;fontColor=#333333;" vertex="1" parent="1">
          <mxGeometry x="470" y="225" width="160" height="430" as="geometry" />
        </mxCell>
        <mxCell id="PXgQgO9ZJXW4oYvPHx63-15" value="Gold Layer" style="rounded=0;whiteSpace=wrap;html=1;fillColor=#fff2cc;strokeColor=#d6b656;fontSize=20;" vertex="1" parent="1">
          <mxGeometry x="660" y="185" width="160" height="30" as="geometry" />
        </mxCell>
        <mxCell id="PXgQgO9ZJXW4oYvPHx63-16" value="" style="rounded=0;whiteSpace=wrap;html=1;fillColor=none;strokeColor=#d6b656;fontSize=20;" vertex="1" parent="1">
          <mxGeometry x="660" y="225" width="160" height="430" as="geometry" />
        </mxCell>
        <mxCell id="PXgQgO9ZJXW4oYvPHx63-17" value="&lt;b&gt;CRM&lt;/b&gt;" style="image;aspect=fixed;html=1;points=[];align=center;fontSize=12;image=img/lib/azure2/general/Folder_Blank.svg;" vertex="1" parent="1">
          <mxGeometry x="89" y="326" width="69" height="56.00000000000001" as="geometry" />
        </mxCell>
        <mxCell id="PXgQgO9ZJXW4oYvPHx63-19" value="" style="verticalLabelPosition=bottom;html=1;verticalAlign=top;align=center;strokeColor=none;fillColor=#00BEF2;shape=mxgraph.azure.cloud_services_configuration_file;pointerEvents=1;" vertex="1" parent="1">
          <mxGeometry x="139" y="356" width="30" height="30" as="geometry" />
        </mxCell>
        <mxCell id="PXgQgO9ZJXW4oYvPHx63-22" value="&lt;b&gt;ERP&lt;/b&gt;" style="image;aspect=fixed;html=1;points=[];align=center;fontSize=12;image=img/lib/azure2/general/Folder_Blank.svg;" vertex="1" parent="1">
          <mxGeometry x="93" y="436" width="69" height="56.00000000000001" as="geometry" />
        </mxCell>
        <mxCell id="PXgQgO9ZJXW4oYvPHx63-23" value="" style="verticalLabelPosition=bottom;html=1;verticalAlign=top;align=center;strokeColor=none;fillColor=#00BEF2;shape=mxgraph.azure.cloud_services_configuration_file;pointerEvents=1;" vertex="1" parent="1">
          <mxGeometry x="143" y="466" width="30" height="35" as="geometry" />
        </mxCell>
        <mxCell id="PXgQgO9ZJXW4oYvPHx63-26" value="" style="endArrow=none;html=1;rounded=0;" edge="1" parent="1">
          <mxGeometry width="50" height="50" relative="1" as="geometry">
            <mxPoint x="60" y="532" as="sourcePoint" />
            <mxPoint x="190" y="532" as="targetPoint" />
          </mxGeometry>
        </mxCell>
        <mxCell id="PXgQgO9ZJXW4oYvPHx63-27" value="&lt;b&gt;Object Type:&lt;/b&gt; CSV Files&lt;div&gt;&lt;br&gt;&lt;div&gt;&lt;b&gt;Interface:&lt;/b&gt; Files in Folder&lt;/div&gt;&lt;/div&gt;" style="text;html=1;align=center;verticalAlign=middle;whiteSpace=wrap;rounded=0;" vertex="1" parent="1">
          <mxGeometry x="50" y="560" width="140" height="40" as="geometry" />
        </mxCell>
        <mxCell id="PXgQgO9ZJXW4oYvPHx63-28" value="" style="html=1;verticalLabelPosition=bottom;align=center;labelBackgroundColor=#ffffff;verticalAlign=top;strokeWidth=2;strokeColor=#d79b00;shadow=0;dashed=0;shape=mxgraph.ios7.icons.data;fillColor=#ffe6cc;" vertex="1" parent="1">
          <mxGeometry x="324.5" y="250" width="51" height="64" as="geometry" />
        </mxCell>
        <mxCell id="PXgQgO9ZJXW4oYvPHx63-29" value="" style="html=1;verticalLabelPosition=bottom;align=center;labelBackgroundColor=#ffffff;verticalAlign=top;strokeWidth=2;strokeColor=#666666;shadow=0;dashed=0;shape=mxgraph.ios7.icons.data;fillColor=#f5f5f5;fontColor=#333333;" vertex="1" parent="1">
          <mxGeometry x="525" y="250" width="51" height="64" as="geometry" />
        </mxCell>
        <mxCell id="PXgQgO9ZJXW4oYvPHx63-30" value="" style="html=1;verticalLabelPosition=bottom;align=center;labelBackgroundColor=#ffffff;verticalAlign=top;strokeWidth=2;strokeColor=#d6b656;shadow=0;dashed=0;shape=mxgraph.ios7.icons.data;fillColor=#fff2cc;" vertex="1" parent="1">
          <mxGeometry x="714.5" y="250" width="51" height="64" as="geometry" />
        </mxCell>
        <mxCell id="PXgQgO9ZJXW4oYvPHx63-31" value="" style="shape=flexArrow;endArrow=classic;html=1;rounded=0;exitX=0.979;exitY=0.423;exitDx=0;exitDy=0;exitPerimeter=0;fillColor=#7EA6E0;strokeColor=default;" edge="1" parent="1">
          <mxGeometry width="50" height="50" relative="1" as="geometry">
            <mxPoint x="213.22000000000003" y="399.9999999999999" as="sourcePoint" />
            <mxPoint x="270" y="400" as="targetPoint" />
          </mxGeometry>
        </mxCell>
        <mxCell id="PXgQgO9ZJXW4oYvPHx63-32" value="" style="shape=flexArrow;endArrow=classic;html=1;rounded=0;fillColor=#7EA6E0;strokeColor=default;" edge="1" parent="1">
          <mxGeometry width="50" height="50" relative="1" as="geometry">
            <mxPoint x="423" y="400" as="sourcePoint" />
            <mxPoint x="470" y="400" as="targetPoint" />
          </mxGeometry>
        </mxCell>
        <mxCell id="PXgQgO9ZJXW4oYvPHx63-33" value="" style="shape=flexArrow;endArrow=classic;html=1;rounded=0;fillColor=#7EA6E0;strokeColor=default;" edge="1" parent="1">
          <mxGeometry width="50" height="50" relative="1" as="geometry">
            <mxPoint x="630" y="400" as="sourcePoint" />
            <mxPoint x="670" y="400" as="targetPoint" />
          </mxGeometry>
        </mxCell>
        <mxCell id="PXgQgO9ZJXW4oYvPHx63-34" value="&lt;font style=&quot;font-size: 14px;&quot;&gt;&lt;b&gt;Row Data&lt;/b&gt;&lt;/font&gt;" style="text;html=1;align=center;verticalAlign=middle;whiteSpace=wrap;rounded=0;" vertex="1" parent="1">
          <mxGeometry x="310" y="340" width="65.5" height="30" as="geometry" />
        </mxCell>
        <mxCell id="PXgQgO9ZJXW4oYvPHx63-35" value="&lt;font style=&quot;font-size: 14px;&quot;&gt;&lt;b&gt;Cleaned, Standardized Data&lt;/b&gt;&lt;/font&gt;" style="text;html=1;align=center;verticalAlign=middle;whiteSpace=wrap;rounded=0;" vertex="1" parent="1">
          <mxGeometry x="480" y="350" width="150" height="30" as="geometry" />
        </mxCell>
        <mxCell id="PXgQgO9ZJXW4oYvPHx63-37" value="&lt;font style=&quot;font-size: 14px;&quot;&gt;&lt;b&gt;Business-Ready Data&lt;/b&gt;&lt;/font&gt;" style="text;html=1;align=center;verticalAlign=middle;whiteSpace=wrap;rounded=0;" vertex="1" parent="1">
          <mxGeometry x="670" y="340" width="150" height="30" as="geometry" />
        </mxCell>
        <mxCell id="PXgQgO9ZJXW4oYvPHx63-38" value="" style="endArrow=none;html=1;rounded=0;" edge="1" parent="1">
          <mxGeometry width="50" height="50" relative="1" as="geometry">
            <mxPoint x="285" y="385.04999999999995" as="sourcePoint" />
            <mxPoint x="415" y="385.04999999999995" as="targetPoint" />
          </mxGeometry>
        </mxCell>
        <mxCell id="PXgQgO9ZJXW4oYvPHx63-39" value="" style="endArrow=none;html=1;rounded=0;" edge="1" parent="1">
          <mxGeometry width="50" height="50" relative="1" as="geometry">
            <mxPoint x="485.5" y="386" as="sourcePoint" />
            <mxPoint x="615.5" y="386" as="targetPoint" />
          </mxGeometry>
        </mxCell>
        <mxCell id="PXgQgO9ZJXW4oYvPHx63-40" value="" style="endArrow=none;html=1;rounded=0;" edge="1" parent="1">
          <mxGeometry width="50" height="50" relative="1" as="geometry">
            <mxPoint x="675" y="386" as="sourcePoint" />
            <mxPoint x="805" y="386" as="targetPoint" />
          </mxGeometry>
        </mxCell>
        <mxCell id="PXgQgO9ZJXW4oYvPHx63-41" value="&lt;div style=&quot;text-align: left;&quot;&gt;&lt;font&gt;&lt;b style=&quot;background-color: transparent; color: light-dark(rgb(0, 0, 0), rgb(255, 255, 255));&quot;&gt;Object Type:&lt;/b&gt;&lt;span style=&quot;background-color: transparent; color: light-dark(rgb(0, 0, 0), rgb(255, 255, 255));&quot;&gt; Table&lt;/span&gt;&lt;/font&gt;&lt;/div&gt;&lt;div&gt;&lt;div style=&quot;text-align: left;&quot;&gt;&lt;font&gt;&lt;br&gt;&lt;/font&gt;&lt;/div&gt;&lt;div style=&quot;text-align: left;&quot;&gt;&lt;b&gt;&lt;font&gt;Load:&amp;nbsp;&lt;/font&gt;&lt;/b&gt;&lt;/div&gt;&lt;div style=&quot;text-align: left;&quot;&gt;&lt;ul&gt;&lt;li&gt;&lt;span style=&quot;background-color: transparent; color: light-dark(rgb(0, 0, 0), rgb(255, 255, 255));&quot;&gt;&lt;font&gt;Batch Processing&lt;/font&gt;&lt;/span&gt;&lt;/li&gt;&lt;li&gt;&lt;span style=&quot;background-color: transparent; color: light-dark(rgb(0, 0, 0), rgb(255, 255, 255));&quot;&gt;&lt;font&gt;Full Load&amp;nbsp;&lt;/font&gt;&lt;/span&gt;&lt;/li&gt;&lt;li&gt;&lt;span style=&quot;background-color: transparent; color: light-dark(rgb(0, 0, 0), rgb(255, 255, 255));&quot;&gt;&lt;font&gt;Trunc &amp;amp;Insert&lt;/font&gt;&lt;/span&gt;&lt;/li&gt;&lt;/ul&gt;&lt;div&gt;&lt;b&gt;&lt;font&gt;No Transformations&lt;/font&gt;&lt;/b&gt;&lt;/div&gt;&lt;div&gt;&lt;b&gt;&lt;font&gt;&lt;br&gt;&lt;/font&gt;&lt;/b&gt;&lt;/div&gt;&lt;div&gt;&lt;font&gt;&lt;b style=&quot;&quot;&gt;Data Model:&lt;/b&gt; None (as-is)&lt;/font&gt;&lt;/div&gt;&lt;/div&gt;&lt;/div&gt;" style="text;html=1;align=center;verticalAlign=middle;whiteSpace=wrap;rounded=0;" vertex="1" parent="1">
          <mxGeometry x="270" y="436" width="160" height="80" as="geometry" />
        </mxCell>
        <mxCell id="PXgQgO9ZJXW4oYvPHx63-42" value="&lt;div style=&quot;text-align: left;&quot;&gt;&lt;font&gt;&lt;b style=&quot;background-color: transparent; color: light-dark(rgb(0, 0, 0), rgb(255, 255, 255));&quot;&gt;Object Type:&lt;/b&gt;&lt;span style=&quot;background-color: transparent; color: light-dark(rgb(0, 0, 0), rgb(255, 255, 255));&quot;&gt; Table&lt;/span&gt;&lt;/font&gt;&lt;/div&gt;&lt;div&gt;&lt;div style=&quot;text-align: left;&quot;&gt;&lt;font&gt;&lt;br&gt;&lt;/font&gt;&lt;/div&gt;&lt;div style=&quot;text-align: left;&quot;&gt;&lt;b&gt;&lt;font&gt;Load:&amp;nbsp;&lt;/font&gt;&lt;/b&gt;&lt;/div&gt;&lt;div style=&quot;text-align: left;&quot;&gt;&lt;ul&gt;&lt;li&gt;&lt;span style=&quot;background-color: transparent; color: light-dark(rgb(0, 0, 0), rgb(255, 255, 255));&quot;&gt;&lt;font&gt;Batch Processing&lt;/font&gt;&lt;/span&gt;&lt;/li&gt;&lt;li&gt;&lt;span style=&quot;background-color: transparent; color: light-dark(rgb(0, 0, 0), rgb(255, 255, 255));&quot;&gt;&lt;font&gt;Full Load&amp;nbsp;&lt;/font&gt;&lt;/span&gt;&lt;/li&gt;&lt;li&gt;&lt;span style=&quot;background-color: transparent; color: light-dark(rgb(0, 0, 0), rgb(255, 255, 255));&quot;&gt;&lt;font&gt;Trunc &amp;amp;Insert&lt;/font&gt;&lt;/span&gt;&lt;/li&gt;&lt;/ul&gt;&lt;div&gt;&lt;b&gt;&lt;font&gt;Transformations:&lt;/font&gt;&lt;/b&gt;&lt;/div&gt;&lt;div&gt;&lt;ul&gt;&lt;li&gt;Data Cleansing&lt;/li&gt;&lt;li&gt;Data Standriztion&lt;/li&gt;&lt;li&gt;Data Normalization&lt;/li&gt;&lt;li&gt;Derived Columns&lt;/li&gt;&lt;li&gt;Data Enrichment&lt;/li&gt;&lt;/ul&gt;&lt;/div&gt;&lt;div&gt;&lt;b style=&quot;background-color: transparent; color: light-dark(rgb(0, 0, 0), rgb(255, 255, 255));&quot;&gt;Data Model:&lt;/b&gt;&lt;span style=&quot;background-color: transparent; color: light-dark(rgb(0, 0, 0), rgb(255, 255, 255));&quot;&gt; None (as-is)&lt;/span&gt;&lt;/div&gt;&lt;/div&gt;&lt;/div&gt;" style="text;html=1;align=center;verticalAlign=middle;whiteSpace=wrap;rounded=0;" vertex="1" parent="1">
          <mxGeometry x="465" y="450" width="170" height="140" as="geometry" />
        </mxCell>
        <mxCell id="PXgQgO9ZJXW4oYvPHx63-44" value="&lt;div style=&quot;text-align: left;&quot;&gt;&lt;font&gt;&lt;b style=&quot;background-color: transparent; color: light-dark(rgb(0, 0, 0), rgb(255, 255, 255));&quot;&gt;Object Type:&lt;/b&gt;&lt;span style=&quot;background-color: transparent; color: light-dark(rgb(0, 0, 0), rgb(255, 255, 255));&quot;&gt; View&lt;/span&gt;&lt;/font&gt;&lt;/div&gt;&lt;div&gt;&lt;div style=&quot;text-align: left;&quot;&gt;&lt;font&gt;&lt;br&gt;&lt;/font&gt;&lt;/div&gt;&lt;div style=&quot;text-align: left;&quot;&gt;&lt;b&gt;&lt;font&gt;No Load&lt;/font&gt;&lt;/b&gt;&lt;/div&gt;&lt;div style=&quot;text-align: left;&quot;&gt;&lt;b&gt;&lt;font&gt;&lt;br&gt;&lt;/font&gt;&lt;/b&gt;&lt;/div&gt;&lt;div style=&quot;text-align: left;&quot;&gt;&lt;div&gt;&lt;b&gt;&lt;font&gt;Transformations:&lt;/font&gt;&lt;/b&gt;&lt;/div&gt;&lt;div&gt;&lt;ul&gt;&lt;li&gt;Data Integrations&lt;/li&gt;&lt;li&gt;Aggregations&lt;/li&gt;&lt;li&gt;Business Logics&lt;/li&gt;&lt;/ul&gt;&lt;/div&gt;&lt;div&gt;&lt;b style=&quot;background-color: transparent; color: light-dark(rgb(0, 0, 0), rgb(255, 255, 255));&quot;&gt;Data Model:&lt;/b&gt;&lt;/div&gt;&lt;div&gt;&lt;ul&gt;&lt;li&gt;Star Schema&lt;/li&gt;&lt;li&gt;Flat Table&amp;nbsp;&lt;/li&gt;&lt;li&gt;Aggregated Table&lt;/li&gt;&lt;/ul&gt;&lt;/div&gt;&lt;/div&gt;&lt;/div&gt;" style="text;html=1;align=center;verticalAlign=middle;whiteSpace=wrap;rounded=0;" vertex="1" parent="1">
          <mxGeometry x="660" y="450" width="160" height="140" as="geometry" />
        </mxCell>
        <mxCell id="PXgQgO9ZJXW4oYvPHx63-45" value="" style="image;aspect=fixed;html=1;points=[];align=center;fontSize=12;image=img/lib/azure2/power_platform/PowerBI.svg;" vertex="1" parent="1">
          <mxGeometry x="910" y="247" width="51" height="68" as="geometry" />
        </mxCell>
        <mxCell id="PXgQgO9ZJXW4oYvPHx63-46" value="&lt;font style=&quot;font-size: 14px;&quot;&gt;&lt;b&gt;BI &amp;amp; Reporting&lt;/b&gt;&lt;/font&gt;" style="text;html=1;align=center;verticalAlign=middle;whiteSpace=wrap;rounded=0;" vertex="1" parent="1">
          <mxGeometry x="875" y="326" width="150" height="30" as="geometry" />
        </mxCell>
        <mxCell id="PXgQgO9ZJXW4oYvPHx63-47" value="" style="shadow=0;dashed=0;html=1;strokeColor=none;fillColor=#4495D1;labelPosition=center;verticalLabelPosition=bottom;verticalAlign=top;align=center;outlineConnect=0;shape=mxgraph.veeam.magnifying_glass;pointerEvents=1;" vertex="1" parent="1">
          <mxGeometry x="924.4" y="386" width="55.2" height="54.4" as="geometry" />
        </mxCell>
        <mxCell id="PXgQgO9ZJXW4oYvPHx63-48" value="&lt;font style=&quot;font-size: 14px;&quot;&gt;&lt;b&gt;Ad-hoc&lt;/b&gt;&lt;/font&gt;&lt;div&gt;&lt;font style=&quot;font-size: 14px;&quot;&gt;&lt;b&gt;SQL Queries&lt;/b&gt;&lt;/font&gt;&lt;/div&gt;" style="text;html=1;align=center;verticalAlign=middle;whiteSpace=wrap;rounded=0;" vertex="1" parent="1">
          <mxGeometry x="877" y="450" width="150" height="30" as="geometry" />
        </mxCell>
        <mxCell id="PXgQgO9ZJXW4oYvPHx63-51" value="&lt;span style=&quot;font-size: 14px;&quot;&gt;&lt;b&gt;Machine Learning&lt;/b&gt;&lt;/span&gt;" style="text;html=1;align=center;verticalAlign=middle;whiteSpace=wrap;rounded=0;" vertex="1" parent="1">
          <mxGeometry x="877" y="600" width="150" height="30" as="geometry" />
        </mxCell>
        <mxCell id="PXgQgO9ZJXW4oYvPHx63-54" value="" style="sketch=0;outlineConnect=0;fontColor=#232F3E;gradientColor=none;fillColor=#7AA116;strokeColor=none;dashed=0;verticalLabelPosition=bottom;verticalAlign=top;align=center;html=1;fontSize=12;fontStyle=0;aspect=fixed;pointerEvents=1;shape=mxgraph.aws4.iot_greengrass_component_machine_learning;" vertex="1" parent="1">
          <mxGeometry x="911" y="516" width="78" height="78" as="geometry" />
        </mxCell>
        <UserObject label="&lt;img src=&quot;https://cdn-icons-png.flaticon.com/128/5968/5968364.png&quot; alt=&quot;Sql server&quot;&gt;" link="&lt;img src=&quot;https://cdn-icons-png.flaticon.com/128/5968/5968364.png&quot; alt=&quot;Sql server&quot;&gt;" id="PXgQgO9ZJXW4oYvPHx63-56">
          <mxCell style="text;whiteSpace=wrap;html=1;" vertex="1" parent="1">
            <mxGeometry x="240" y="10" width="30" height="40" as="geometry" />
          </mxCell>
        </UserObject>
      </root>
    </mxGraphModel>
  </diagram>
</mxfile>
